<svg width="42" height="42" viewBox="0 0 42 42" fill="none" xmlns="http://www.w3.org/2000/svg">
<g id="Group 3">
<path id="Oval Copy 2" fill-rule="evenodd" clip-rule="evenodd" d="M21.0362 41C10.0105 41 1.07237 32.0457 1.07237 21C1.07237 9.9543 10.0105 1 21.0362 1C32.0619 1 41 9.9543 41 21C41 32.0457 32.0619 41 21.0362 41Z" stroke="#324063"/>
<path id="Shape Copy 2" d="M23.318 20.6501L23.6607 20.9999L23.318 21.3498L18.0945 26.6828C17.9846 26.795 17.9863 26.9755 18.0983 27.0855C18.2097 27.1951 18.3883 27.1934 18.4977 27.0817L24.2593 21.1994C24.3677 21.0887 24.3677 20.9111 24.2593 20.8005L18.4977 14.9181C18.3883 14.8065 18.2097 14.8048 18.0983 14.9143C17.9863 15.0243 17.9846 15.2049 18.0945 15.317L23.318 20.6501Z" stroke="#324063"/>
</g>
</svg>
